<svg xmlns="http://www.w3.org/2000/svg" viewBox="0 0 824 824">
  <path fill="#fff" d="M0 624V200C0 85 70 0 200.03 0H624c130 0 200 85 200 200v424c0 115-70 200-200 200H200.03C70 824 0 739 0 624Z"/>
  <path fill="#3179ed" d="M270.26 485.1c-28.66-36.18-63.8-66.04-105.38-89.63-41.52-24.18-87.11-39.07-136.76-44.65 49.66 5.58 97.37 1.48 143.14-12.28 45.85-14.38 86.74-36.02 122.7-64.93 35.96-28.9 65.68-64.32 89.15-106.2 24.07-41.85 38.92-87.76 44.52-137.75-5.6 49.99-1.6 98.02 12.02 144.1 14.21 46.13 35.66 87.28 64.31 123.42 1.68.48-233.7 187.9-233.7 187.9zm106.28 309.24c8.8-49.55 7.6-97.8-3.62-144.75-10.61-46.85-29.08-89.23-55.36-127.17 0 0 246.03-171.73 245.33-172.46 26.26 37.93 59.35 70.3 99.23 97.1 39.97 26.22 84.57 43.7 133.76 52.45-49.2-8.76-97.13-7.44-143.8 3.96-46.56 10.8-88.72 29.47-126.44 56.01-37.75 26.54-69.99 59.89-96.69 100.09-26.13 40.3-43.6 85.22-52.41 134.77z"/>
</svg>