<svg xmlns="http://www.w3.org/2000/svg" viewBox="0 0 471 471">
  <path fill="#000" d="M152.28 282.2c-17.6-22.22-39.18-40.56-64.72-55.05-25.5-14.85-53.5-23.99-83.99-27.42 30.5 3.43 59.8.91 87.91-7.54 28.16-8.83 53.27-22.12 75.35-39.88 22.09-17.75 40.34-39.5 54.76-65.22 14.78-25.7 23.9-53.9 27.34-84.6-3.44 30.7-.98 60.2 7.38 88.5 8.73 28.33 21.9 53.6 39.5 75.8 1.03.29-143.53 115.4-143.53 115.4zm65.27 189.92c5.41-30.43 4.67-60.06-2.22-88.9-6.52-28.77-17.86-54.8-34-78.1 0 0 151.1-105.47 150.67-105.92 16.13 23.3 36.45 43.18 60.94 59.64 24.55 16.1 51.94 26.83 82.15 32.21-30.21-5.38-59.65-4.57-88.31 2.43-28.6 6.64-54.49 18.1-77.66 34.4-23.18 16.3-42.98 36.78-59.38 61.47-16.05 24.75-26.78 52.34-32.19 82.77z"/>
</svg>
